<svg xmlns="http://www.w3.org/2000/svg" version="1.1" xmlns:xlink="http://www.w3.org/1999/xlink" xmlns:svgjs="http://svgjs.dev/svgjs" width="1440" height="678" preserveAspectRatio="none" viewBox="0 0 1440 678"><g mask="url(&quot;#SvgjsMask1127&quot;)" fill="none"><rect width="1440" height="678" x="0" y="0" fill="rgba(19, 17, 28, 1)"></rect><path d="M680.38 800.33C794.2 752.95 707.28 428.01 968.23 399.89 1229.18 371.77 1391.86 205.96 1543.92 203.27" stroke="rgba(32, 87, 197, 0.29)" stroke-width="2"></path><path d="M779.17 799.44C893.2 735.01 842.35 348.01 1044.14 347.48 1245.92 346.95 1420.76 648.07 1574.07 659.36" stroke="rgba(32, 87, 197, 0.29)" stroke-width="2"></path><path d="M883.25 779.55C962.53 773.51 918.58 634.64 1156.35 616.58 1394.13 598.52 1544.06 303.17 1702.56 291.14" stroke="rgba(32, 87, 197, 0.29)" stroke-width="2"></path><path d="M377.23 775.33C563.01 743.9 620.66 310.66 951.57 287.31 1282.49 263.96 1375.74 113 1525.92 111.03" stroke="rgba(32, 87, 197, 0.29)" stroke-width="2"></path><path d="M582.46 725.01C724.43 718.19 808.72 485.29 1091.73 472.28 1374.74 459.27 1459.95 234.4 1601 228.2" stroke="rgba(32, 87, 197, 0.29)" stroke-width="2"></path></g><defs><mask id="SvgjsMask1127"><rect width="1440" height="678" fill="#ffffff"></rect></mask></defs></svg>